# AST/ASF file generated using VICON BodyLanguage
# -----------------------------------------------
:version 1.10
:name VICON
:units
  mass 1.0
  length 0.45
  angle deg
:documentation
   .ast/.asf automatically generated from VICON data using
   VICON BodyBuilder and BodyLanguage model FoxedUp or BRILLIANT.MOD
:root
   order TX TY TZ RX RY RZ
   axis XYZ
   position 0 0 0  
   orientation 0 0 0 
:bonedata
  begin
     id 1 
     name lhipjoint
     direction 0.602128 -0.715006 0.355257 
     length 2.21237 
     axis 0 0 0  XYZ
  end
  begin
     id 2 
     name lfemur
     direction 0.34202 -0.939693 0  
     length 6.71649  
     axis 0 0 20  XYZ
    dof rx ry rz
    limits (-160.0 20.0)
           (-70.0 70.0)
           (-60.0 70.0)
  end
  begin
     id 3 
     name ltibia
     direction 0.34202 -0.939693 0   
     length 6.97123   
     axis 0 0 20   XYZ
    dof rx
    limits (-10.0 170.0)
  end
  begin
     id 4 
     name lfoot
     direction 0.0655697 -0.180151 0.981451   
     length 1.80924   
     axis -90 7.62852e-016 20   XYZ
    dof rx rz
    limits (-45.0 90.0)
           (-70.0 20.0)
  end
  begin
     id 5 
     name ltoes
     direction 1.53545e-011 -4.21827e-011 1   
     length 0.916331   
     axis -90 7.62852e-016 20   XYZ
    dof rx
    limits (-90.0 20.0)
  end
  begin
     id 6 
     name rhipjoint
     direction -0.625414 -0.698792 0.347201   
     length 2.2637  
     axis 0 0 0  XYZ 
  end
  begin
     id 7 
     name rfemur
     direction -0.34202 -0.939693 0   
     length 7.07595   
     axis 0 0 -20   XYZ
    dof rx ry rz
    limits (-160.0 20.0)
           (-70.0 70.0)
           (-70.0 60.0)
  end
  begin
     id 8 
     name rtibia
     direction -0.34202 -0.939693 0   
     length 7.22924   
     axis 0 0 -20   XYZ
    dof rx
    limits (-10.0 170.0)
 end
 begin
     id 9 
     name rfoot
     direction -0.0766747 -0.210662 0.974547   
     length 1.98482  
     axis -90 -7.62852e-016 -20   XYZ
    dof rx rz
    limits (-45.0 90.0)
           (-20.0 70.0)
  end
  begin
     id 10 
     name rtoes
     direction -1.53532e-011 -4.21867e-011 1   
     length 0.999842   
     axis -90 -7.62852e-016 -20   XYZ
    dof rx
    limits (-90.0 20.0)
  end
  begin
     id 11 
     name lowerback
     direction -0.0224668 0.997354 -0.0691422   
     length 2.09945   
     axis 0 0 0   XYZ
    dof rx ry rz
    limits (-20.0 45.0)
           (-30.0 30.0)
           (-30.0 30.0)
  end
  begin
     id 12 
     name upperback
     direction 0.0134698 0.998451 -0.0539888   
     length 2.09758   
     axis 0 0 0   XYZ
    dof rx ry rz
    limits (-20.0 45.0)
           (-30.0 30.0)
           (-30.0 30.0)
  end
  begin
     id 13 
     name thorax
     direction 0.0241905 0.99948 -0.0213333   
     length 2.10428   
     axis 0 0 0   XYZ
    dof rx ry rz
    limits (-20.0 45.0)
           (-30.0 30.0)
           (-30.0 30.0)
  end
  begin
     id 14 
     name lowerneck
     direction -0.00866847 0.995978 0.0891737   
     length 1.3959   
     axis 0 0 0   XYZ
    dof rx ry rz
    limits (-20.0 45.0)
           (-30.0 30.0)
           (-30.0 30.0)
  end
  begin
     id 15 
     name upperneck
     direction 0.0680679 0.992203 0.104404   
     length 1.39452   
     axis 0 0 0   XYZ
    dof rx ry rz
    limits (-20.0 45.0)
           (-30.0 30.0)
           (-30.0 30.0)
  end
  begin
     id 16
     name head
     direction 0.0242216 0.999358 0.0264054  
     length 1.40433  
     axis 0 0 0   XYZ
    dof rx ry rz
    limits (-20.0 45.0)
           (-30.0 30.0)
           (-30.0 30.0)
  end
  begin
     id 17 
     name lclavicle
     direction 0.929368 0.362991 -0.0671771  
     length 3.04887  
     axis 0 0 0   XYZ
    dof ry rz
    limits (-20.0 10.0)
           (0.0 20.0)
  end
  begin
     id 18 
     name lhumerus
     direction 1 -4.48967e-011 -7.13741e-028   
     length 4.77195   
     axis -180 -30 -90   XYZ
    dof rx ry rz
    limits (-60.0 90.0)
           (-90.0 90.0)
           (-90.0 90.0)
  end
  begin
     id 19
     name lradius
     direction 1 -4.48977e-011 3.60404e-027   
     length 2.98444   
     axis -180 -30 -90   XYZ
    dof rx
    limits (-10.0 170.0)
  end
  begin
     id 20
     name lwrist
     direction 1 -4.48997e-011 7.54877e-027   
     length 1.49222   
     axis -7.18178e-015 90 90   XYZ
    dof ry
    limits (-180.0 0.0)
 end
  begin
     id 21 
     name lhand
     direction 1 -4.489e-011 1.51105e-026   
     length 0.992285   
     axis -9.63605e-015 90 90   XYZ
    dof rx rz
    limits (-90.0 90.0)
           (-45.0 45.0)
  end
  begin
     id 22 
     name lfingers
     direction 1 -4.48998e-011 3.01948e-026   
     length 0.800006   
     axis -1.92718e-014 90 90   XYZ
    dof rx
    limits (0.0 90.0)
  end
  begin
     id 23
     name lthumb
     direction 0.707107 -6.34881e-011 0.707107   
     length 1.14865   
     axis -90 45 -3.53137e-014   XYZ
    dof rx rz
    limits (-45.0 45.0)
           (-45.0 45.0)
  end
  begin
     id 24 
     name rclavicle
     direction -0.945672 0.324529 0.0196374   
     length 3.4236  
     axis 0 0 0   XYZ 
    dof ry rz
    limits (-10.0 20.0)
           (-20.0 0.0)
  end
  begin
     id 25 
     name rhumerus
     direction -1 -4.4896e-011 1.02757e-029  
     length 4.62052   
     axis -180 30 90   XYZ
    dof rx ry rz
    limits (-90.0 60.0)
           (-90.0 90.0)
           (-90.0 90.0)
  end
  begin
     id 26 
     name rradius
     direction -1 -4.48982e-011 3.85962e-027   
     length 2.95332   
     axis -180 30 90   XYZ
    dof rx
    limits (-10.0 170.0)
  end
  begin
     id 27 
     name rwrist
     direction -1 -4.48961e-011 7.55118e-027   
     length 1.47666   
     axis -7.18178e-015 -90 -90   XYZ
    dof ry
    limits (-180.0 0.0)
  end
  begin
     id 28
     name rhand
     direction -1 -4.48984e-011 1.50994e-026   
     length 0.990956   
     axis -9.63605e-015 -90 -90   XYZ
    dof rx rz
    limits (-90.0 90.0)
           (-45.0 45.0)
  end
  begin
     id 29
     name rfingers
     direction -1 -4.4892e-011 3.02158e-026   
     length 0.798934   
     axis -1.92718e-014 -90 -90   XYZ
    dof rx
    limits (0.0 90.0)
  end
  begin
     id 30
     name rthumb
     direction -0.707107 -6.34916e-011 0.707107   
     length 1.14711   
     axis -90 -45 3.53137e-014   XYZ
    dof rx rz
    limits (-45.0 45.0)
           (-45.0 45.0)
  end
:hierarchy
  begin
    root lhipjoint rhipjoint lowerback
    lhipjoint lfemur
    lfemur ltibia
    ltibia lfoot
    lfoot ltoes
    rhipjoint rfemur
    rfemur rtibia
    rtibia rfoot
    rfoot rtoes
    lowerback upperback
    upperback thorax
    thorax lowerneck lclavicle rclavicle
    lowerneck upperneck
    upperneck head
    lclavicle lhumerus
    lhumerus lradius
    lradius lwrist
    lwrist lhand lthumb
    lhand lfingers
    rclavicle rhumerus
    rhumerus rradius
    rradius rwrist
    rwrist rhand rthumb
    rhand rfingers
  end

#!OML:ASF H:\ManfredObstacles\Project 1\Capture day 1\Session 1\Male.ASF
:FULLY-SPECIFIED
:DEGREES
176
root -0.130326 16.3116 13.8299 -169.163 -12.361 181.228
lowerback -10.4551 -2.87499 -3.79862
upperback 0.401886 -3.42831 0.603548
thorax 6.55587 -1.83276 2.21724
lowerneck 4.68904 -3.56052 -4.58426
upperneck -13.0614 -4.55101 10.5124
head -4.29108 -2.87863 4.24155
rclavicle -2.6339e-015 1.90833e-014
rhumerus -41.25 -26.9785 -69.0346
rradius 23.4868
rwrist 40.0742
rhand 1.55158 -7.34964
rfingers 7.12502
rthumb 27.0757 -35.4283
lclavicle -2.6339e-015 1.90833e-014
lhumerus -32.1154 27.3118 75.2697
lradius 14.2363
lwrist -41.9288
lhand -10.4583 7.70958
lfingers 7.12502
lthumb 15.5423 37.105
rfemur -35.6158 -3.61352 19.3958
rtibia 26.3081
rfoot -4.9899 9.58139
rtoes 18.1098
lfemur 4.33541 0.857414 -19.2647
ltibia 0
lfoot -1.65941 -18.3601
ltoes 7.17592
177
root -0.108566 16.3073 13.7286 -169.224 -12.0855 181.783
lowerback -10.2949 -2.80243 -3.3148
upperback 0.438607 -3.4083 0.833227
thorax 6.48769 -1.80953 2.19725
lowerneck 4.6082 -3.40004 -4.85426
upperneck -13.4886 -4.34517 10.7277
head -4.41003 -2.79986 4.35819
rclavicle 6.01324e-015 1.90833e-014
rhumerus -40.2026 -25.5142 -70.251
rradius 24.1146
rwrist 38.9154
rhand 1.55339 -7.43175
rfingers 7.12502
rthumb 27.0774 -35.5101
lclavicle 6.01324e-015 1.90833e-014
lhumerus -32.6792 28.8684 74.2777
lradius 13.4211
lwrist -42.9655
lhand -10.2756 7.82669
lfingers 7.12502
lthumb 15.7183 37.2083
rfemur -35.5951 -4.14394 20.4815
rtibia 26.6696
rfoot -5.25171 10.7204
rtoes 18.7134
lfemur 4.72147 1.22618 -18.5352
ltibia 3.18055e-015
lfoot -2.01646 -18.4458
ltoes 6.64465
178
root -0.0830577 16.3039 13.6287 -169.035 -11.9586 182.001
lowerback -10.2749 -2.82837 -3.17192
upperback 0.390831 -3.47222 0.981552
thorax 6.43073 -1.83828 2.26455
lowerneck 4.34483 -3.30677 -4.85162
upperneck -13.6396 -4.23591 10.6353
head -4.42249 -2.74706 4.32292
rclavicle 2.96686e-014 6.75868e-015
rhumerus -39.2742 -24.582 -71.077
rradius 24.4783
rwrist 38.251
rhand 1.22918 -7.11066
rfingers 7.12502
rthumb 26.7672 -35.2369
lclavicle 2.96686e-014 6.75868e-015
lhumerus -32.9931 29.2722 73.9056
lradius 12.7728
lwrist -42.8045
lhand -10.0834 7.95301
lfingers 7.12502
lthumb 15.9034 37.32
rfemur -35.7551 -4.70638 21.2201
rtibia 26.9974
rfoot -5.93857 11.62
rtoes 18.8746
lfemur 4.87935 1.39284 -18.1316
ltibia -1.27222e-014
lfoot -2.29048 -18.5154
ltoes 6.32188
179
root -0.0563353 16.2987 13.5276 -168.833 -11.8806 182.218
lowerback -10.3234 -2.86082 -3.04391
upperback 0.299656 -3.54358 1.13519
thorax 6.36834 -1.87161 2.3425
lowerneck 4.13455 -3.21025 -4.91857
upperneck -13.6888 -4.12096 10.5757
head -4.41088 -2.68495 4.30739
rclavicle 1.48592e-014 -7.15625e-015
rhumerus -38.5481 -23.7743 -71.7531
rradius 24.93
rwrist 37.4855
rhand 0.922227 -7.14861
rfingers 7.12502
rthumb 26.4734 -35.3194
lclavicle 1.48592e-014 -7.15625e-015
lhumerus -33.4516 28.8949 73.8888
lradius 12.709
lwrist -42.4644
lhand -9.64352 7.92456
lfingers 7.12502
lthumb 16.3269 37.2573
rfemur -35.8563 -5.19294 21.9308
rtibia 27.259
rfoot -6.79624 12.4221
rtoes 17.6833
lfemur 5.02875 1.51338 -17.7169
ltibia 2.54444e-014
lfoot -2.3692 -18.5451
ltoes 7.26002
180
root -0.0307 16.2931 13.4285 -168.775 -11.8724 182.516
lowerback -10.3225 -2.89603 -2.81704
upperback 0.271497 -3.62998 1.28643
thorax 6.33953 -1.90972 2.36058
lowerneck 3.98224 -3.08858 -5.16568
upperneck -13.7446 -3.96136 10.7862
head -4.40321 -2.61174 4.40696
rclavicle 1.41137e-014 -7.55382e-015
rhumerus -37.8023 -23.1315 -72.4268
rradius 25.4252
rwrist 36.5026
rhand 0.831569 -7.56259
rfingers 7.12502
rthumb 26.3866 -35.7465
lclavicle 1.41137e-014 -7.55382e-015
lhumerus -33.8142 28.4693 73.9482
lradius 12.7959
lwrist -42.6455
lhand -9.10458 7.70116
lfingers 7.12502
lthumb 16.8458 36.9905
rfemur -35.8057 -5.58669 22.6295
rtibia 27.5622
rfoot -7.46205 13.1132
rtoes 16.3346
lfemur 5.28794 1.57692 -17.2182
ltibia -3.18055e-015
lfoot -2.42675 -18.5817
ltoes 8.54428
181
root -0.00792591 16.2907 13.3383 -168.612 -11.9175 182.749
lowerback -10.4349 -2.9492 -2.60639
upperback 0.266892 -3.73237 1.38598
thorax 6.39798 -1.9562 2.32488
lowerneck 3.91582 -3.00212 -5.14722
upperneck -13.981 -3.84387 10.8929
head -4.47105 -2.57672 4.43974
rclavicle 2.57426e-014 -2.10712e-014
rhumerus -37.1048 -22.867 -72.9789
rradius 25.8351
rwrist 35.7302
rhand 0.798339 -7.75683
rfingers 7.12502
rthumb 26.3548 -35.9455
lclavicle 2.57426e-014 -2.10712e-014
lhumerus -33.9484 28.3449 73.9543
lradius 12.7985
lwrist -43.1474
lhand -8.78946 7.39973
lfingers 7.12502
lthumb 17.1491 36.6629
rfemur -35.8912 -5.83942 23.1505
rtibia 27.8481
rfoot -7.79699 13.6136
rtoes 16.2411
lfemur 5.3909 1.58256 -16.8147
ltibia -2.54444e-014
lfoot -2.65333 -18.6048
ltoes 8.66115
182
root 0.00959965 16.2892 13.2594 -168.314 -11.9673 182.946
lowerback -10.5466 -3.02322 -2.35571
upperback 0.155906 -3.87087 1.47235
thorax 6.34145 -2.01828 2.24943
lowerneck 4.00378 -2.88453 -5.05495
upperneck -14.3394 -3.68529 10.9202
head -4.60988 -2.52716 4.44173
rclavicle -2.54444e-014 3.97569e-016
rhumerus -36.6529 -22.4977 -73.4719
rradius 26.2367
rwrist 35.0617
rhand 0.53612 -7.9826
rfingers 7.12502
rthumb 26.1038 -36.2086
lclavicle -2.54444e-014 3.97569e-016
lhumerus -34.1321 28.4199 73.8355
lradius 12.7935
lwrist -43.9599
lhand -8.62014 7.12213
lfingers 7.12502
lthumb 17.3121 36.3711
rfemur -36.1511 -6.03882 23.5849
rtibia 28.1065
rfoot -8.05463 14.0962
rtoes 16.512
lfemur 5.31152 1.58694 -16.4925
ltibia -3.49861e-014
lfoot -2.94553 -18.6207
ltoes 7.76081
183
root 0.021645 16.2817 13.1864 -168.104 -11.8769 183.424
lowerback -10.6086 -2.99624 -1.768
upperback 0.050957 -3.92571 1.64528
thorax 6.24068 -2.03157 2.09195
lowerneck 3.8337 -2.79922 -5.15028
upperneck -14.4446 -3.58279 10.9419
head -4.61874 -2.47933 4.46033
rclavicle -2.19657e-014 1.27222e-014
rhumerus -36.203 -22.0923 -73.8734
rradius 26.4821
rwrist 34.4409
rhand 0.141823 -8.20822
rfingers 7.12502
rthumb 25.7262 -36.4894
lclavicle -2.19657e-014 1.27222e-014
lhumerus -34.1742 28.7945 73.6702
lradius 12.5666
lwrist -45.3159
lhand -8.66941 6.80902
lfingers 7.12502
lthumb 17.2646 36.0621
rfemur -36.3916 -6.24479 24.3448
rtibia 28.3632
rfoot -8.1235 14.7216
rtoes 17.9259
lfemur 5.33102 1.78505 -15.8932
ltibia 2.22639e-014
lfoot -3.07326 -18.7532
ltoes 7.56845
184
root 0.0320282 16.2699 13.1162 -168.022 -11.6344 184.035
lowerback -10.692 -2.82125 -1.03448
upperback 0.0541197 -3.80011 1.80102
thorax 6.24644 -1.95262 1.86051
lowerneck 3.32845 -2.8203 -5.16507
upperneck -14.2555 -3.62302 10.935
head -4.47117 -2.4877 4.44363
rclavicle -7.65321e-015 5.1684e-015
rhumerus -35.7516 -21.8312 -74.2472
rradius 26.646
rwrist 33.8489
rhand -0.0229702 -8.34146
rfingers 7.12502
rthumb 25.5684 -36.6454
lclavicle -7.65321e-015 5.1684e-015
lhumerus -33.8933 29.0188 73.7522
lradius 12.3693
lwrist -46.4231
lhand -8.86015 6.65314
lfingers 7.12502
lthumb 17.0811 35.9222
rfemur -36.5398 -6.48513 25.2912
rtibia 28.6282
rfoot -8.17036 15.5061
rtoes 18.8422
lfemur 5.52191 2.15424 -15.1474
ltibia -2.22639e-014
lfoot -2.97729 -18.9706
ltoes 9.16322
185
root 0.0458606 16.2615 13.0512 -167.908 -11.3642 184.305
lowerback -10.7058 -2.66068 -0.702224
upperback 0.0125163 -3.63372 1.83387
thorax 6.18377 -1.86269 1.73612
lowerneck 3.08037 -2.82495 -5.06392
upperneck -14.1769 -3.62839 10.9551
head -4.40617 -2.49411 4.42484
rclavicle -4.96962e-015 -6.75868e-015
rhumerus -35.5264 -21.5585 -74.5912
rradius 26.7915
rwrist 33.5327
rhand -0.0366911 -8.26554
rfingers 7.12502
rthumb 25.5552 -36.5713
lclavicle -4.96962e-015 -6.75868e-015
lhumerus -33.6932 28.8701 73.985
lradius 12.5701
lwrist -47.0025
lhand -8.87645 6.71194
lfingers 7.12502
lthumb 17.0654 35.9824
rfemur -36.6978 -6.76339 25.8833
rtibia 28.8985
rfoot -8.25573 16.2441
rtoes 19.2163
lfemur 5.6996 2.48044 -14.7782
ltibia 1.90833e-014
lfoot -2.90084 -19.1082
ltoes 10.6569
186
root 0.0609986 16.2554 12.989 -167.759 -11.1021 184.242
lowerback -10.663 -2.59684 -0.780724
upperback -0.0550317 -3.53986 1.83184
thorax 6.08907 -1.81935 1.79668
lowerneck 3.1084 -2.7686 -5.07941
upperneck -14.3551 -3.55325 11.0107
head -4.46961 -2.47089 4.44916
rclavicle -2.53947e-014 3.97569e-016
rhumerus -35.3406 -21.2251 -74.8531
rradius 26.8003
rwrist 33.5551
rhand -0.0902451 -8.03141
rfingers 7.12502
rthumb 25.5039 -36.3446
lclavicle -2.53947e-014 3.97569e-016
lhumerus -33.5249 28.8081 74.2768
lradius 12.8877
lwrist -47.1232
lhand -8.77588 6.927
lfingers 7.12502
lthumb 17.1622 36.1891
rfemur -36.8186 -7.08643 26.1159
rtibia 29.1695
rfoot -8.45489 16.9253
rtoes 19.2108
lfemur 5.87516 2.72726 -14.7844
ltibia -6.36111e-015
lfoot -3.04811 -19.1899
ltoes 10.6686
